# xmcd
#
# Track frame offsets: 
#        150
#        18555
#        34615
#        48877
#        64995
#        88327
#        105745
#        117450
#        136770
#        145645
#        157812
#
# Disc length: 2334 seconds
#
# Revision: 6
# Processed by: cddbd v1.5.2PL0 Copyright (c) Steve Scherf et al.
# Submitted via: ExactAudioCopyFreeDBPlugin 1.0
#
DISCID=8e091c0b
DTITLE=Teddy Morgan - Louisiana Rain
DYEAR=1996
DGENRE=Blues
TTITLE0=Take This Hurt Off Me
TTITLE1=Full Grown Man
TTITLE2=You Wouldn't Change
TTITLE3=Fine Way To Treat Me
TTITLE4=Louisiana Rain
TTITLE5=Big Town Women
TTITLE6=Baby Don't Leave Me
TTITLE7=Hey Hey Now
TTITLE8=Inside-out
TTITLE9=You're The One
TTITLE10=Walkin' Out On You
EXTD=
EXTT0=
EXTT1=
EXTT2=
EXTT3=
EXTT4=
EXTT5=
EXTT6=
EXTT7=
EXTT8=
EXTT9=
EXTT10=
PLAYORDER=
